<svg width="25" height="30" viewBox="0 0 25 30" fill="none" xmlns="http://www.w3.org/2000/svg">
<path d="M20.3744 15.5672C20.3892 14.4452 20.6945 13.345 21.2618 12.3692C21.8291 11.3933 22.6401 10.5734 23.6192 9.9857C22.9972 9.11843 22.1766 8.40471 21.2227 7.90121C20.2687 7.39771 19.2077 7.11831 18.1238 7.08521C15.8116 6.84825 13.5701 8.43597 12.3918 8.43597C11.1908 8.43597 9.37673 7.10873 7.42327 7.14797C6.15972 7.18782 4.9283 7.54654 3.84898 8.18918C2.76965 8.83182 1.87924 9.73646 1.2645 10.8149C-1.39836 15.3161 0.5879 21.9313 3.13875 25.5697C4.415 27.3514 5.90655 29.3415 7.85826 29.2709C9.7681 29.1936 10.4814 28.0819 12.7867 28.0819C15.0707 28.0819 15.7399 29.2709 17.7312 29.226C19.7806 29.1936 21.0717 27.4365 22.3032 25.638C23.2202 24.3685 23.9258 22.9655 24.3939 21.4808C23.2033 20.9892 22.1873 20.1663 21.4725 19.1147C20.7577 18.063 20.3758 16.8293 20.3744 15.5672Z" fill="white"/>
<path d="M16.6137 4.69233C17.7311 3.38274 18.2816 1.69947 18.1483 0C16.4412 0.17505 14.8643 0.971606 13.7318 2.23095C13.1781 2.84618 12.754 3.56192 12.4838 4.33725C12.2136 5.11258 12.1026 5.93231 12.157 6.74956C13.0109 6.75814 13.8556 6.57746 14.6276 6.22111C15.3996 5.86476 16.0787 5.34205 16.6137 4.69233Z" fill="white"/>
</svg>
