<svg width="1440" height="188" viewBox="0 0 1440 188" fill="none" xmlns="http://www.w3.org/2000/svg">
<g clip-path="url(#clip0_620_10112)">
<rect width="1440" height="188" fill="url(#paint0_linear_620_10112)"/>
<g clip-path="url(#clip1_620_10112)">
<rect width="1440" height="457" fill="#009688"/>
<mask id="mask0_620_10112" style="mask-type:alpha" maskUnits="userSpaceOnUse" x="0" y="0" width="1440" height="900">
<rect width="1440" height="900" fill="#C4C4C4"/>
</mask>
<g mask="url(#mask0_620_10112)">
<mask id="mask1_620_10112" style="mask-type:alpha" maskUnits="userSpaceOnUse" x="-47" y="-43" width="1582" height="1039">
<rect x="1534.6" y="995.332" width="1581.17" height="1038.24" transform="rotate(179.988 1534.6 995.332)" fill="#F5288F"/>
</mask>
<g mask="url(#mask1_620_10112)">
<g filter="url(#filter0_f_620_10112)">
<circle cx="1172.62" cy="885.873" r="552.457" transform="rotate(179.988 1172.62 885.873)" fill="url(#paint1_linear_620_10112)"/>
</g>
<g filter="url(#filter1_f_620_10112)">
<circle cx="-306.089" cy="476.757" r="552.457" transform="rotate(179.988 -306.089 476.757)" fill="url(#paint2_linear_620_10112)"/>
</g>
<g filter="url(#filter2_f_620_10112)">
<circle cx="10.7177" cy="955.327" r="402.437" transform="rotate(179.988 10.7177 955.327)" fill="#009688"/>
</g>
<g filter="url(#filter3_f_620_10112)">
<circle cx="1534.43" cy="190.461" r="552.457" transform="rotate(179.988 1534.43 190.461)" fill="#009688"/>
</g>
<g filter="url(#filter4_f_620_10112)">
<circle cx="596.388" cy="1043.16" r="461.969" transform="rotate(179.988 596.388 1043.16)" fill="url(#paint3_linear_620_10112)"/>
</g>
<path d="M1467.9 1028.69C915.565 927.123 746.822 541.612 487.543 73.7725L1662.95 455.423C1782.04 680.364 1909.76 1109.93 1467.9 1028.69Z" fill="#009688"/>
<g filter="url(#filter5_f_620_10112)">
<path d="M1429.05 1034.43C876.724 932.87 843.85 651.053 584.571 183.213L1608.11 421.17C1727.2 646.111 1870.92 1115.68 1429.05 1034.43Z" fill="#009688"/>
</g>
<g filter="url(#filter6_f_620_10112)">
<path d="M1509.35 1114.48C955.461 1019.51 948.127 741.246 704.993 211.997L1729.42 445.373C1840.69 700.064 1952.46 1190.45 1509.35 1114.48Z" fill="#009688"/>
</g>
<g filter="url(#filter7_f_620_10112)">
<circle cx="743.794" cy="-42.7367" r="461.969" transform="rotate(179.988 743.794 -42.7367)" fill="url(#paint4_linear_620_10112)"/>
</g>
<path d="M1904.61 544.665C1063.65 606.853 672.121 110.88 117.808 -470.317L1970.29 -362.203C2228.72 -80.6435 2577.37 494.914 1904.61 544.665Z" fill="#009688"/>
<g filter="url(#filter8_f_620_10112)">
<path d="M1997.3 654.688C1156.34 716.876 1040 371.985 485.692 -209.212L2062.99 -252.18C2321.41 29.3795 2670.07 604.937 1997.3 654.688Z" fill="url(#paint5_linear_620_10112)"/>
</g>
<g filter="url(#filter9_f_620_10112)">
<path d="M1773.43 516.623C932.471 578.811 816.134 233.921 261.821 -347.276L1839.12 -390.245C2097.54 -108.685 2446.2 466.873 1773.43 516.623Z" fill="url(#paint6_linear_620_10112)"/>
</g>
<g filter="url(#filter10_f_620_10112)">
<circle cx="1462.94" cy="-42.893" r="552.457" transform="rotate(179.988 1462.94 -42.893)" fill="url(#paint7_linear_620_10112)"/>
</g>
<g filter="url(#filter11_f_620_10112)">
<path d="M1310.65 447.684C1310.61 258.303 1464.1 104.746 1653.48 104.706C1842.86 104.665 1996.42 258.155 1996.46 447.537C1996.5 636.918 1843.01 790.474 1653.63 790.515C1464.24 790.556 1310.69 637.065 1310.65 447.684Z" fill="#009688"/>
</g>
<g filter="url(#filter12_f_620_10112)">
<ellipse cx="730.104" cy="149.417" rx="295.5" ry="215" transform="rotate(-180 730.104 149.417)" fill="#009688"/>
</g>
</g>
<g filter="url(#filter13_f_620_10112)">
<ellipse cx="278.44" cy="601.514" rx="207.578" ry="315.612" transform="rotate(-34.1892 278.44 601.514)" fill="#009688"/>
</g>
<mask id="mask2_620_10112" style="mask-type:alpha" maskUnits="userSpaceOnUse" x="-501" y="-93" width="1539" height="1214">
<path d="M916.839 1120.75L1037.93 191.498L179.389 -92.4075L-75.49 -91.772L-500.054 422.687L-468.292 840.297L275.39 1017.35L916.839 1120.75Z" fill="url(#paint8_linear_620_10112)"/>
</mask>
<g mask="url(#mask2_620_10112)">
<mask id="mask3_620_10112" style="mask-type:alpha" maskUnits="userSpaceOnUse" x="-531" y="-153" width="1606" height="1281">
<path d="M-530.78 806.692C-430.215 386.789 -255.366 -131.098 -251.742 -152.34L1074.89 169.432L925.071 1127.58L-530.78 806.692Z" fill="url(#paint9_linear_620_10112)"/>
</mask>
<g mask="url(#mask3_620_10112)">
<path d="M190.259 96.2086C335.72 130.839 422.204 310.388 390.096 445.254C357.988 580.119 256.969 743.088 100.902 705.932C23.5639 687.52 -91.803 755.318 -167.699 666.282C-244.957 575.647 -179.897 396.771 -163.7 328.737C-131.592 193.872 44.7989 61.5781 190.259 96.2086Z" fill="#009688"/>
<g filter="url(#filter14_f_620_10112)">
<path d="M185.769 107.345C341.772 144.485 425.614 287.856 400.687 392.562C375.759 497.267 284.187 620.661 128.184 583.521C50.8771 565.116 -60.2999 615.485 -139.734 541.477C-220.594 466.14 -165.336 328.396 -152.761 275.578C-127.834 170.872 29.7664 70.2044 185.769 107.345Z" fill="#009688"/>
</g>
<g filter="url(#filter15_f_620_10112)">
<path d="M197.491 141.66C372.339 183.287 463.141 357.29 432.361 486.579C401.58 615.868 295.217 769.83 120.368 728.203C33.7222 707.575 -95.7261 784.361 -183.341 695.47C-272.53 604.982 -204.117 423.385 -188.59 358.165C-157.81 228.877 22.6418 100.033 197.491 141.66Z" fill="#009688"/>
</g>
<g filter="url(#filter16_f_620_10112)">
<path d="M207.683 188.71C415.212 275.162 549.895 503.104 510.071 670.377C470.248 837.649 317.628 992.395 107.932 942.471C4.01689 917.731 -172.97 1068.24 -276.598 955.546C-382.088 840.831 -296.903 538.287 -276.814 453.907C-236.991 286.634 -32.7276 88.5595 207.683 188.71Z" fill="#009688"/>
</g>
<g filter="url(#filter17_f_620_10112)">
<path d="M254.136 244.566C479.924 298.321 639.121 563.951 600.185 727.495C561.25 891.038 401.182 1039.75 175.393 985.996C63.5044 959.358 -87.209 989.428 -200.753 876.339C-316.338 761.218 -301.592 406.402 -281.951 323.902C-243.015 160.358 28.3481 190.811 254.136 244.566Z" fill="#009688"/>
</g>
<g filter="url(#filter18_f_620_10112)">
<path d="M342.599 334.608C575.931 390.158 724.325 658.41 684.501 825.682C644.678 992.955 479.709 1144.76 246.378 1089.21C130.751 1061.68 11.981 794.282 -105.562 678.279C-225.217 560.191 -139.105 339.622 -119.016 255.241C-79.1924 87.9689 109.268 279.057 342.599 334.608Z" fill="#009688"/>
</g>
<g filter="url(#filter19_f_620_10112)">
<path d="M181.492 268.15C384.561 321.147 502.163 586.018 458.743 752.393C415.322 918.768 262.277 1070.94 59.2072 1017.94C-41.4236 991.677 -175.158 1004.05 -273.094 889.993C-372.788 773.891 -285.894 554.198 -263.991 470.27C-220.57 303.895 -21.5779 215.153 181.492 268.15Z" fill="#009688"/>
</g>
</g>
</g>
<mask id="mask4_620_10112" style="mask-type:alpha" maskUnits="userSpaceOnUse" x="448" y="-822" width="2296" height="2068">
<path d="M448.323 205.92C728.162 652.474 1085.23 1222.07 1097.4 1245.42L2743.61 217.496L2094.53 -822L448.323 205.92Z" fill="url(#paint10_linear_620_10112)"/>
</mask>
<g mask="url(#mask4_620_10112)">
<path d="M1749.99 584.334C1935.66 468.399 1991.8 210.832 1902.18 67.308C1812.56 -76.2164 1619.8 -217.635 1420.59 -93.2461C1321.87 -31.6051 1142.1 -52.7039 1069.44 92.0028C995.482 239.309 1144.86 418.107 1190.07 490.508C1279.69 634.033 1564.32 700.27 1749.99 584.334Z" fill="#009688"/>
<g filter="url(#filter20_f_620_10112)">
<path d="M1740.09 573.433C1939.22 449.094 1995.8 222.5 1918.77 99.1308C1841.73 -24.2381 1665.51 -139.226 1466.38 -14.8872C1367.71 46.7286 1194.4 35.8643 1115.52 170.504C1035.23 307.563 1167.43 458.878 1206.29 521.112C1283.32 644.48 1540.96 697.771 1740.09 573.433Z" fill="#009688"/>
</g>
<g filter="url(#filter21_f_620_10112)">
<path d="M1746.12 569.663C1969.3 430.304 2023.09 160.913 1928.12 8.81471C1833.15 -143.284 1624.31 -290.307 1401.12 -150.948C1290.52 -81.8883 1081.43 -117.836 997.328 39.9539C911.712 200.579 1079.69 401.896 1127.6 478.622C1222.57 630.721 1522.93 709.022 1746.12 569.663Z" fill="#009688"/>
</g>
<g filter="url(#filter22_f_620_10112)">
<path d="M1760.63 535.565C2012.88 326.198 2117.95 -13.5946 2006.8 -191.606C1895.64 -369.618 1635.62 -474.73 1367.96 -307.596C1235.32 -224.773 943.662 -312.316 841.427 -125.27C737.354 65.137 925.431 285.146 981.502 374.945C1092.66 552.956 1468.41 778.105 1760.63 535.565Z" fill="#009688"/>
</g>
<g filter="url(#filter23_f_620_10112)">
<path d="M1808.48 405.555C2096.69 225.596 2201.59 -158.681 2092.91 -332.724C1984.24 -506.768 1716.16 -600.888 1427.96 -420.928C1285.14 -331.75 1070.26 -289.892 954.694 -97.2701C837.055 98.8118 1024.55 311.661 1079.37 399.457C1188.05 573.501 1520.28 585.514 1808.48 405.555Z" fill="#009688"/>
</g>
<g filter="url(#filter24_f_620_10112)">
<path d="M1877.27 266.042C2175.11 80.0703 2285.03 -314.611 2173.88 -492.623C2062.72 -670.635 1786.94 -765.904 1489.11 -579.932C1341.52 -487.774 1119.9 -443.814 999.899 -245.676C877.746 -43.9795 1069.93 173.463 1126.01 263.261C1237.16 441.273 1579.44 452.013 1877.27 266.042Z" fill="#009688"/>
</g>
<g filter="url(#filter25_f_620_10112)">
<path d="M1670.94 434.225C1931.54 271.5 2009.42 -103.169 1898.27 -281.181C1787.11 -459.193 1530.78 -566.608 1270.18 -403.883C1141.04 -323.245 954.668 -272.687 856.589 -88.2363C756.748 99.5282 943.862 320.138 999.934 409.937C1111.09 587.948 1410.34 596.95 1670.94 434.225Z" fill="#009688"/>
</g>
</g>
<mask id="mask5_620_10112" style="mask-type:alpha" maskUnits="userSpaceOnUse" x="-199" y="416" width="1299" height="789">
<path d="M1057.04 1204.09L1099.56 770.482L-181.227 416.668L-198.885 906.237L1057.04 1204.09Z" fill="url(#paint11_linear_620_10112)"/>
</mask>
<g mask="url(#mask5_620_10112)">
</g>
</g>
</g>
</g>
<defs>
<filter id="filter0_f_620_10112" x="67.7078" y="-219.042" width="2209.83" height="2209.83" filterUnits="userSpaceOnUse" color-interpolation-filters="sRGB">
<feFlood flood-opacity="0" result="BackgroundImageFix"/>
<feBlend mode="normal" in="SourceGraphic" in2="BackgroundImageFix" result="shape"/>
<feGaussianBlur stdDeviation="276.229" result="effect1_foregroundBlur_620_10112"/>
</filter>
<filter id="filter1_f_620_10112" x="-1411" y="-628.157" width="2209.83" height="2209.83" filterUnits="userSpaceOnUse" color-interpolation-filters="sRGB">
<feFlood flood-opacity="0" result="BackgroundImageFix"/>
<feBlend mode="normal" in="SourceGraphic" in2="BackgroundImageFix" result="shape"/>
<feGaussianBlur stdDeviation="276.229" result="effect1_foregroundBlur_620_10112"/>
</filter>
<filter id="filter2_f_620_10112" x="-944.177" y="0.433411" width="1909.79" height="1909.79" filterUnits="userSpaceOnUse" color-interpolation-filters="sRGB">
<feFlood flood-opacity="0" result="BackgroundImageFix"/>
<feBlend mode="normal" in="SourceGraphic" in2="BackgroundImageFix" result="shape"/>
<feGaussianBlur stdDeviation="276.229" result="effect1_foregroundBlur_620_10112"/>
</filter>
<filter id="filter3_f_620_10112" x="429.52" y="-914.454" width="2209.83" height="2209.83" filterUnits="userSpaceOnUse" color-interpolation-filters="sRGB">
<feFlood flood-opacity="0" result="BackgroundImageFix"/>
<feBlend mode="normal" in="SourceGraphic" in2="BackgroundImageFix" result="shape"/>
<feGaussianBlur stdDeviation="276.229" result="effect1_foregroundBlur_620_10112"/>
</filter>
<filter id="filter4_f_620_10112" x="-418.038" y="28.7318" width="2028.85" height="2028.85" filterUnits="userSpaceOnUse" color-interpolation-filters="sRGB">
<feFlood flood-opacity="0" result="BackgroundImageFix"/>
<feBlend mode="normal" in="SourceGraphic" in2="BackgroundImageFix" result="shape"/>
<feGaussianBlur stdDeviation="276.229" result="effect1_foregroundBlur_620_10112"/>
</filter>
<filter id="filter5_f_620_10112" x="523.266" y="121.908" width="1267.19" height="983.164" filterUnits="userSpaceOnUse" color-interpolation-filters="sRGB">
<feFlood flood-opacity="0" result="BackgroundImageFix"/>
<feBlend mode="normal" in="SourceGraphic" in2="BackgroundImageFix" result="shape"/>
<feGaussianBlur stdDeviation="30.6522" result="effect1_foregroundBlur_620_10112"/>
</filter>
<filter id="filter6_f_620_10112" x="578.298" y="85.3009" width="1377.73" height="1163.78" filterUnits="userSpaceOnUse" color-interpolation-filters="sRGB">
<feFlood flood-opacity="0" result="BackgroundImageFix"/>
<feBlend mode="normal" in="SourceGraphic" in2="BackgroundImageFix" result="shape"/>
<feGaussianBlur stdDeviation="63.3478" result="effect1_foregroundBlur_620_10112"/>
</filter>
<filter id="filter7_f_620_10112" x="-270.632" y="-1057.16" width="2028.85" height="2028.85" filterUnits="userSpaceOnUse" color-interpolation-filters="sRGB">
<feFlood flood-opacity="0" result="BackgroundImageFix"/>
<feBlend mode="normal" in="SourceGraphic" in2="BackgroundImageFix" result="shape"/>
<feGaussianBlur stdDeviation="276.229" result="effect1_foregroundBlur_620_10112"/>
</filter>
<filter id="filter8_f_620_10112" x="338.052" y="-399.82" width="2196.56" height="1209.35" filterUnits="userSpaceOnUse" color-interpolation-filters="sRGB">
<feFlood flood-opacity="0" result="BackgroundImageFix"/>
<feBlend mode="normal" in="SourceGraphic" in2="BackgroundImageFix" result="shape"/>
<feGaussianBlur stdDeviation="73.8197" result="effect1_foregroundBlur_620_10112"/>
</filter>
<filter id="filter9_f_620_10112" x="152.281" y="-499.784" width="2120.36" height="1133.15" filterUnits="userSpaceOnUse" color-interpolation-filters="sRGB">
<feFlood flood-opacity="0" result="BackgroundImageFix"/>
<feBlend mode="normal" in="SourceGraphic" in2="BackgroundImageFix" result="shape"/>
<feGaussianBlur stdDeviation="54.7695" result="effect1_foregroundBlur_620_10112"/>
</filter>
<filter id="filter10_f_620_10112" x="358.028" y="-1147.81" width="2209.83" height="2209.83" filterUnits="userSpaceOnUse" color-interpolation-filters="sRGB">
<feFlood flood-opacity="0" result="BackgroundImageFix"/>
<feBlend mode="normal" in="SourceGraphic" in2="BackgroundImageFix" result="shape"/>
<feGaussianBlur stdDeviation="276.229" result="effect1_foregroundBlur_620_10112"/>
</filter>
<filter id="filter11_f_620_10112" x="758.189" y="-447.752" width="1790.72" height="1790.72" filterUnits="userSpaceOnUse" color-interpolation-filters="sRGB">
<feFlood flood-opacity="0" result="BackgroundImageFix"/>
<feBlend mode="normal" in="SourceGraphic" in2="BackgroundImageFix" result="shape"/>
<feGaussianBlur stdDeviation="276.229" result="effect1_foregroundBlur_620_10112"/>
</filter>
<filter id="filter12_f_620_10112" x="134.604" y="-365.583" width="1191" height="1030" filterUnits="userSpaceOnUse" color-interpolation-filters="sRGB">
<feFlood flood-opacity="0" result="BackgroundImageFix"/>
<feBlend mode="normal" in="SourceGraphic" in2="BackgroundImageFix" result="shape"/>
<feGaussianBlur stdDeviation="150" result="effect1_foregroundBlur_620_10112"/>
</filter>
<filter id="filter13_f_620_10112" x="-216.948" y="66.9642" width="990.777" height="1069.1" filterUnits="userSpaceOnUse" color-interpolation-filters="sRGB">
<feFlood flood-opacity="0" result="BackgroundImageFix"/>
<feBlend mode="normal" in="SourceGraphic" in2="BackgroundImageFix" result="shape"/>
<feGaussianBlur stdDeviation="124.268" result="effect1_foregroundBlur_620_10112"/>
</filter>
<filter id="filter14_f_620_10112" x="-192.818" y="89.5317" width="607.788" height="510.683" filterUnits="userSpaceOnUse" color-interpolation-filters="sRGB">
<feFlood flood-opacity="0" result="BackgroundImageFix"/>
<feBlend mode="normal" in="SourceGraphic" in2="BackgroundImageFix" result="shape"/>
<feGaussianBlur stdDeviation="4.97072" result="effect1_foregroundBlur_620_10112"/>
</filter>
<filter id="filter15_f_620_10112" x="-263.089" y="98.8993" width="736.167" height="675.377" filterUnits="userSpaceOnUse" color-interpolation-filters="sRGB">
<feFlood flood-opacity="0" result="BackgroundImageFix"/>
<feBlend mode="normal" in="SourceGraphic" in2="BackgroundImageFix" result="shape"/>
<feGaussianBlur stdDeviation="17.3975" result="effect1_foregroundBlur_620_10112"/>
</filter>
<filter id="filter16_f_620_10112" x="-378.048" y="111.953" width="944.801" height="935.683" filterUnits="userSpaceOnUse" color-interpolation-filters="sRGB">
<feFlood flood-opacity="0" result="BackgroundImageFix"/>
<feBlend mode="normal" in="SourceGraphic" in2="BackgroundImageFix" result="shape"/>
<feGaussianBlur stdDeviation="24.8536" result="effect1_foregroundBlur_620_10112"/>
</filter>
<filter id="filter17_f_620_10112" x="-429.618" y="67.4743" width="1169.88" height="1063.92" filterUnits="userSpaceOnUse" color-interpolation-filters="sRGB">
<feFlood flood-opacity="0" result="BackgroundImageFix"/>
<feBlend mode="normal" in="SourceGraphic" in2="BackgroundImageFix" result="shape"/>
<feGaussianBlur stdDeviation="67.1047" result="effect1_foregroundBlur_620_10112"/>
</filter>
<filter id="filter18_f_620_10112" x="-500.829" y="-144.958" width="1524.82" height="1578.88" filterUnits="userSpaceOnUse" color-interpolation-filters="sRGB">
<feFlood flood-opacity="0" result="BackgroundImageFix"/>
<feBlend mode="normal" in="SourceGraphic" in2="BackgroundImageFix" result="shape"/>
<feGaussianBlur stdDeviation="166.519" result="effect1_foregroundBlur_620_10112"/>
</filter>
<filter id="filter19_f_620_10112" x="-474.08" y="98.7482" width="1095.89" height="1084.01" filterUnits="userSpaceOnUse" color-interpolation-filters="sRGB">
<feFlood flood-opacity="0" result="BackgroundImageFix"/>
<feBlend mode="normal" in="SourceGraphic" in2="BackgroundImageFix" result="shape"/>
<feGaussianBlur stdDeviation="77.0461" result="effect1_foregroundBlur_620_10112"/>
</filter>
<filter id="filter20_f_620_10112" x="1080.17" y="-78.3609" width="881.637" height="732.564" filterUnits="userSpaceOnUse" color-interpolation-filters="sRGB">
<feFlood flood-opacity="0" result="BackgroundImageFix"/>
<feBlend mode="normal" in="SourceGraphic" in2="BackgroundImageFix" result="shape"/>
<feGaussianBlur stdDeviation="4.97072" result="effect1_foregroundBlur_620_10112"/>
</filter>
<filter id="filter21_f_620_10112" x="938.602" y="-241.627" width="1069.13" height="918.686" filterUnits="userSpaceOnUse" color-interpolation-filters="sRGB">
<feFlood flood-opacity="0" result="BackgroundImageFix"/>
<feBlend mode="normal" in="SourceGraphic" in2="BackgroundImageFix" result="shape"/>
<feGaussianBlur stdDeviation="17.3975" result="effect1_foregroundBlur_620_10112"/>
</filter>
<filter id="filter22_f_620_10112" x="760.877" y="-441.294" width="1339.73" height="1132.64" filterUnits="userSpaceOnUse" color-interpolation-filters="sRGB">
<feFlood flood-opacity="0" result="BackgroundImageFix"/>
<feBlend mode="normal" in="SourceGraphic" in2="BackgroundImageFix" result="shape"/>
<feGaussianBlur stdDeviation="24.8536" result="effect1_foregroundBlur_620_10112"/>
</filter>
<filter id="filter23_f_620_10112" x="782.411" y="-652.214" width="1486.7" height="1321.77" filterUnits="userSpaceOnUse" color-interpolation-filters="sRGB">
<feFlood flood-opacity="0" result="BackgroundImageFix"/>
<feBlend mode="normal" in="SourceGraphic" in2="BackgroundImageFix" result="shape"/>
<feGaussianBlur stdDeviation="67.1047" result="effect1_foregroundBlur_620_10112"/>
</filter>
<filter id="filter24_f_620_10112" x="626.974" y="-1014.04" width="1922.4" height="1748.27" filterUnits="userSpaceOnUse" color-interpolation-filters="sRGB">
<feFlood flood-opacity="0" result="BackgroundImageFix"/>
<feBlend mode="normal" in="SourceGraphic" in2="BackgroundImageFix" result="shape"/>
<feGaussianBlur stdDeviation="166.519" result="effect1_foregroundBlur_620_10112"/>
</filter>
<filter id="filter25_f_620_10112" x="673.672" y="-638.129" width="1427.87" height="1342.38" filterUnits="userSpaceOnUse" color-interpolation-filters="sRGB">
<feFlood flood-opacity="0" result="BackgroundImageFix"/>
<feBlend mode="normal" in="SourceGraphic" in2="BackgroundImageFix" result="shape"/>
<feGaussianBlur stdDeviation="77.0461" result="effect1_foregroundBlur_620_10112"/>
</filter>
<linearGradient id="paint0_linear_620_10112" x1="0" y1="0" x2="990.812" y2="767.719" gradientUnits="userSpaceOnUse">
<stop stop-color="#009688"/>
<stop offset="1" stop-color="#009688"/>
</linearGradient>
<linearGradient id="paint1_linear_620_10112" x1="1172.77" y1="462.074" x2="1172.77" y2="1438.33" gradientUnits="userSpaceOnUse">
<stop stop-color="#009688"/>
<stop offset="1" stop-color="#3F2A8D"/>
</linearGradient>
<linearGradient id="paint2_linear_620_10112" x1="-305.945" y1="52.9585" x2="-305.945" y2="1029.21" gradientUnits="userSpaceOnUse">
<stop stop-color="#009688"/>
<stop offset="1" stop-color="#3F2A8D"/>
</linearGradient>
<linearGradient id="paint3_linear_620_10112" x1="596.508" y1="688.774" x2="596.508" y2="1505.13" gradientUnits="userSpaceOnUse">
<stop stop-color="#009688"/>
<stop offset="1" stop-color="#3F2A8D"/>
</linearGradient>
<linearGradient id="paint4_linear_620_10112" x1="743.914" y1="-397.121" x2="743.914" y2="419.232" gradientUnits="userSpaceOnUse">
<stop stop-color="#009688"/>
<stop offset="1" stop-color="#3F2A8D"/>
</linearGradient>
<linearGradient id="paint5_linear_620_10112" x1="1436.19" y1="555.542" x2="1436.01" y2="-252.046" gradientUnits="userSpaceOnUse">
<stop stop-color="#009688"/>
<stop offset="1" stop-color="#3F2A8D"/>
</linearGradient>
<linearGradient id="paint6_linear_620_10112" x1="1212.32" y1="417.478" x2="1212.14" y2="-390.11" gradientUnits="userSpaceOnUse">
<stop stop-color="#009688"/>
<stop offset="1" stop-color="#3F2A8D"/>
</linearGradient>
<linearGradient id="paint7_linear_620_10112" x1="1463.09" y1="-466.692" x2="1463.09" y2="509.564" gradientUnits="userSpaceOnUse">
<stop stop-color="#009688"/>
<stop offset="1" stop-color="#3F2A8D"/>
</linearGradient>
<linearGradient id="paint8_linear_620_10112" x1="380.574" y1="401.851" x2="-105.446" y2="327.522" gradientUnits="userSpaceOnUse">
<stop stop-color="#C4C4C4"/>
<stop offset="0.943414" stop-color="#C4C4C4" stop-opacity="0"/>
</linearGradient>
<linearGradient id="paint9_linear_620_10112" x1="193.001" y1="158.501" x2="64.7173" y2="716.433" gradientUnits="userSpaceOnUse">
<stop stop-color="#C4C4C4"/>
<stop offset="1" stop-color="#C4C4C4" stop-opacity="0"/>
</linearGradient>
<linearGradient id="paint10_linear_620_10112" x1="1682.86" y1="650.966" x2="1246.57" y2="-99.9509" gradientUnits="userSpaceOnUse">
<stop stop-color="#C4C4C4"/>
<stop offset="1" stop-color="#C4C4C4" stop-opacity="0"/>
</linearGradient>
<linearGradient id="paint11_linear_620_10112" x1="450.178" y1="838.501" x2="417.305" y2="985.682" gradientUnits="userSpaceOnUse">
<stop stop-color="#C4C4C4"/>
<stop offset="1" stop-color="#C4C4C4" stop-opacity="0"/>
</linearGradient>
<clipPath id="clip0_620_10112">
<rect width="1440" height="188" fill="white"/>
</clipPath>
<clipPath id="clip1_620_10112">
<rect width="1440" height="457" fill="white"/>
</clipPath>
</defs>
</svg>
