<svg width="1440" height="272" viewBox="0 0 1440 272" fill="none" xmlns="http://www.w3.org/2000/svg">
<g clip-path="url(#clip0_620_9945)">
<rect width="1440" height="272" fill="url(#paint0_linear_620_9945)"/>
<g clip-path="url(#clip1_620_9945)">
<rect width="1440" height="457" fill="#009688"/>
<mask id="mask0_620_9945" style="mask-type:alpha" maskUnits="userSpaceOnUse" x="0" y="0" width="1440" height="901">
<rect width="1440" height="900" fill="#C4C4C4"/>
</mask>
<g mask="url(#mask0_620_9945)">
<mask id="mask1_620_9945" style="mask-type:alpha" maskUnits="userSpaceOnUse" x="-47" y="-43" width="1582" height="1039">
<rect x="1534.6" y="995.332" width="1581.17" height="1038.24" transform="rotate(179.988 1534.6 995.332)" fill="#F5288F"/>
</mask>
<g mask="url(#mask1_620_9945)">
<g filter="url(#filter0_f_620_9945)">
<circle cx="1172.62" cy="885.873" r="552.457" transform="rotate(179.988 1172.62 885.873)" fill="url(#paint1_linear_620_9945)"/>
</g>
<g filter="url(#filter1_f_620_9945)">
<circle cx="-306.089" cy="476.758" r="552.457" transform="rotate(179.988 -306.089 476.758)" fill="url(#paint2_linear_620_9945)"/>
</g>
<g filter="url(#filter2_f_620_9945)">
<circle cx="10.7177" cy="955.328" r="402.437" transform="rotate(179.988 10.7177 955.328)" fill="#009688"/>
</g>
<g filter="url(#filter3_f_620_9945)">
<circle cx="1534.43" cy="190.461" r="552.457" transform="rotate(179.988 1534.43 190.461)" fill="#009688"/>
</g>
<g filter="url(#filter4_f_620_9945)">
<circle cx="596.388" cy="1043.16" r="461.969" transform="rotate(179.988 596.388 1043.16)" fill="url(#paint3_linear_620_9945)"/>
</g>
<path d="M1467.89 1028.69C915.564 927.124 746.821 541.613 487.542 73.7728L1662.95 455.423C1782.04 680.364 1909.76 1109.93 1467.89 1028.69Z" fill="#009688"/>
<g filter="url(#filter5_f_620_9945)">
<path d="M1429.05 1034.43C876.723 932.87 843.849 651.053 584.57 183.213L1608.11 421.17C1727.2 646.111 1870.92 1115.68 1429.05 1034.43Z" fill="#009688"/>
</g>
<g filter="url(#filter6_f_620_9945)">
<path d="M1509.35 1114.48C955.46 1019.51 948.126 741.246 704.992 211.997L1729.42 445.373C1840.69 700.064 1952.46 1190.45 1509.35 1114.48Z" fill="#009688"/>
</g>
<g filter="url(#filter7_f_620_9945)">
<circle cx="743.794" cy="-42.7362" r="461.969" transform="rotate(179.988 743.794 -42.7362)" fill="url(#paint4_linear_620_9945)"/>
</g>
<path d="M1904.6 544.665C1063.65 606.853 672.12 110.88 117.807 -470.317L1970.29 -362.203C2228.71 -80.6435 2577.37 494.914 1904.6 544.665Z" fill="#009688"/>
<g filter="url(#filter8_f_620_9945)">
<path d="M1997.3 654.688C1156.34 716.876 1040 371.985 485.691 -209.212L2062.99 -252.18C2321.41 29.3795 2670.07 604.937 1997.3 654.688Z" fill="url(#paint5_linear_620_9945)"/>
</g>
<g filter="url(#filter9_f_620_9945)">
<path d="M1773.43 516.623C932.47 578.811 816.133 233.921 261.82 -347.276L1839.12 -390.245C2097.54 -108.685 2446.19 466.873 1773.43 516.623Z" fill="url(#paint6_linear_620_9945)"/>
</g>
<g filter="url(#filter10_f_620_9945)">
<circle cx="1462.94" cy="-42.893" r="552.457" transform="rotate(179.988 1462.94 -42.893)" fill="url(#paint7_linear_620_9945)"/>
</g>
<g filter="url(#filter11_f_620_9945)">
<path d="M1310.65 447.684C1310.61 258.303 1464.1 104.747 1653.48 104.706C1842.86 104.665 1996.41 258.156 1996.46 447.537C1996.5 636.918 1843.01 790.475 1653.62 790.515C1464.24 790.556 1310.69 637.066 1310.65 447.684Z" fill="#009688"/>
</g>
<g filter="url(#filter12_f_620_9945)">
<ellipse cx="730.104" cy="149.417" rx="295.5" ry="215" transform="rotate(-180 730.104 149.417)" fill="#009688"/>
</g>
</g>
<g filter="url(#filter13_f_620_9945)">
<ellipse cx="278.441" cy="601.514" rx="207.578" ry="315.612" transform="rotate(-34.1892 278.441 601.514)" fill="#009688"/>
</g>
<mask id="mask2_620_9945" style="mask-type:alpha" maskUnits="userSpaceOnUse" x="-501" y="-93" width="1539" height="1214">
<path d="M916.84 1120.75L1037.93 191.499L179.39 -92.4072L-75.489 -91.7718L-500.053 422.687L-468.292 840.298L275.391 1017.35L916.84 1120.75Z" fill="url(#paint8_linear_620_9945)"/>
</mask>
<g mask="url(#mask2_620_9945)">
<mask id="mask3_620_9945" style="mask-type:alpha" maskUnits="userSpaceOnUse" x="-531" y="-153" width="1606" height="1281">
<path d="M-530.779 806.692C-430.214 386.789 -255.365 -131.098 -251.741 -152.339L1074.89 169.432L925.072 1127.58L-530.779 806.692Z" fill="url(#paint9_linear_620_9945)"/>
</mask>
<g mask="url(#mask3_620_9945)">
<path d="M190.26 96.2089C335.721 130.839 422.205 310.388 390.097 445.254C357.989 580.12 256.97 743.088 100.903 705.933C23.5649 687.52 -91.8021 755.318 -167.698 666.283C-244.956 575.647 -179.896 396.771 -163.699 328.738C-131.591 193.872 44.7999 61.5783 190.26 96.2089Z" fill="#009688"/>
<g filter="url(#filter14_f_620_9945)">
<path d="M185.77 107.345C341.773 144.486 425.615 287.857 400.688 392.562C375.76 497.267 284.188 620.661 128.185 583.521C50.8781 565.116 -60.2989 615.485 -139.733 541.477C-220.593 466.14 -165.335 328.397 -152.76 275.578C-127.833 170.873 29.7674 70.2047 185.77 107.345Z" fill="#009688"/>
</g>
<g filter="url(#filter15_f_620_9945)">
<path d="M197.492 141.66C372.34 183.287 463.142 357.291 432.362 486.579C401.581 615.868 295.218 769.831 120.369 728.203C33.7232 707.575 -95.7252 784.361 -183.34 695.47C-272.529 604.982 -204.116 423.385 -188.589 358.166C-157.809 228.877 22.6428 100.033 197.492 141.66Z" fill="#009688"/>
</g>
<g filter="url(#filter16_f_620_9945)">
<path d="M207.684 188.71C415.213 275.162 549.896 503.105 510.072 670.377C470.249 837.65 317.629 992.395 107.933 942.471C4.01787 917.732 -172.969 1068.24 -276.598 955.547C-382.087 840.831 -296.902 538.288 -276.813 453.907C-236.99 286.634 -32.7266 88.5597 207.684 188.71Z" fill="#009688"/>
</g>
<g filter="url(#filter17_f_620_9945)">
<path d="M254.137 244.566C479.925 298.321 639.122 563.952 600.186 727.495C561.251 891.039 401.183 1039.75 175.394 985.996C63.5054 959.358 -87.208 989.429 -200.752 876.339C-316.337 761.218 -301.591 406.402 -281.95 323.902C-243.014 160.359 28.349 190.812 254.137 244.566Z" fill="#009688"/>
</g>
<g filter="url(#filter18_f_620_9945)">
<path d="M342.6 334.608C575.932 390.158 724.326 658.41 684.502 825.682C644.679 992.955 479.71 1144.76 246.378 1089.21C130.752 1061.68 11.982 794.282 -105.561 678.279C-225.216 560.191 -139.104 339.623 -119.015 255.242C-79.1914 87.9692 109.269 279.057 342.6 334.608Z" fill="#009688"/>
</g>
<g filter="url(#filter19_f_620_9945)">
<path d="M181.493 268.15C384.562 321.147 502.164 586.018 458.744 752.393C415.323 918.768 262.278 1070.94 59.2082 1017.94C-41.4226 991.678 -175.157 1004.05 -273.093 889.993C-372.787 773.891 -285.893 554.198 -263.99 470.27C-220.569 303.895 -21.5769 215.154 181.493 268.15Z" fill="#009688"/>
</g>
</g>
</g>
<mask id="mask4_620_9945" style="mask-type:alpha" maskUnits="userSpaceOnUse" x="448" y="-822" width="2296" height="2068">
<path d="M448.323 205.92C728.162 652.475 1085.23 1222.07 1097.4 1245.42L2743.61 217.496L2094.53 -821.999L448.323 205.92Z" fill="url(#paint10_linear_620_9945)"/>
</mask>
<g mask="url(#mask4_620_9945)">
<path d="M1749.99 584.335C1935.66 468.399 1991.8 210.833 1902.18 67.3084C1812.56 -76.216 1619.8 -217.635 1420.59 -93.2456C1321.87 -31.6046 1142.1 -52.7034 1069.44 92.0033C995.482 239.31 1144.86 418.108 1190.07 490.509C1279.69 634.033 1564.32 700.271 1749.99 584.335Z" fill="#009688"/>
<g filter="url(#filter20_f_620_9945)">
<path d="M1740.09 573.433C1939.22 449.095 1995.8 222.5 1918.77 99.1313C1841.73 -24.2377 1665.51 -139.225 1466.38 -14.8867C1367.71 46.729 1194.4 35.8648 1115.52 170.505C1035.23 307.563 1167.43 458.878 1206.29 521.112C1283.32 644.481 1540.96 697.772 1740.09 573.433Z" fill="#009688"/>
</g>
<g filter="url(#filter21_f_620_9945)">
<path d="M1746.12 569.664C1969.3 430.304 2023.09 160.914 1928.12 8.8152C1833.15 -143.283 1624.31 -290.306 1401.12 -150.947C1290.52 -81.8879 1081.43 -117.836 997.328 39.9544C911.712 200.579 1079.69 401.896 1127.6 478.623C1222.57 630.721 1522.93 709.023 1746.12 569.664Z" fill="#009688"/>
</g>
<g filter="url(#filter22_f_620_9945)">
<path d="M1760.63 535.565C2012.88 326.198 2117.95 -13.5941 2006.8 -191.606C1895.64 -369.618 1635.62 -474.729 1367.96 -307.595C1235.32 -224.773 943.662 -312.316 841.427 -125.269C737.354 65.1375 925.431 285.147 981.502 374.945C1092.66 552.957 1468.41 778.105 1760.63 535.565Z" fill="#009688"/>
</g>
<g filter="url(#filter23_f_620_9945)">
<path d="M1808.48 405.555C2096.69 225.596 2201.59 -158.68 2092.91 -332.724C1984.24 -506.767 1716.16 -600.887 1427.96 -420.928C1285.14 -331.749 1070.26 -289.891 954.694 -97.2696C837.055 98.8123 1024.55 311.661 1079.37 399.458C1188.05 573.501 1520.28 585.515 1808.48 405.555Z" fill="#009688"/>
</g>
<g filter="url(#filter24_f_620_9945)">
<path d="M1877.27 266.042C2175.11 80.0708 2285.03 -314.611 2173.88 -492.623C2062.72 -670.635 1786.94 -765.903 1489.11 -579.932C1341.52 -487.774 1119.9 -443.813 999.899 -245.676C877.746 -43.979 1069.93 173.463 1126.01 263.261C1237.16 441.273 1579.44 452.013 1877.27 266.042Z" fill="#009688"/>
</g>
<g filter="url(#filter25_f_620_9945)">
<path d="M1670.94 434.225C1931.54 271.5 2009.42 -103.169 1898.27 -281.181C1787.11 -459.192 1530.78 -566.608 1270.18 -403.883C1141.04 -323.245 954.668 -272.687 856.589 -88.2358C756.748 99.5287 943.862 320.139 999.934 409.937C1111.09 587.949 1410.34 596.95 1670.94 434.225Z" fill="#009688"/>
</g>
</g>
<mask id="mask5_620_9945" style="mask-type:alpha" maskUnits="userSpaceOnUse" x="-199" y="416" width="1299" height="789">
<path d="M1057.04 1204.09L1099.56 770.483L-181.227 416.668L-198.885 906.237L1057.04 1204.09Z" fill="url(#paint11_linear_620_9945)"/>
</mask>
<g mask="url(#mask5_620_9945)">
</g>
</g>
</g>
</g>
<defs>
<filter id="filter0_f_620_9945" x="67.7068" y="-219.042" width="2209.83" height="2209.83" filterUnits="userSpaceOnUse" color-interpolation-filters="sRGB">
<feFlood flood-opacity="0" result="BackgroundImageFix"/>
<feBlend mode="normal" in="SourceGraphic" in2="BackgroundImageFix" result="shape"/>
<feGaussianBlur stdDeviation="276.229" result="effect1_foregroundBlur_620_9945"/>
</filter>
<filter id="filter1_f_620_9945" x="-1411" y="-628.157" width="2209.83" height="2209.83" filterUnits="userSpaceOnUse" color-interpolation-filters="sRGB">
<feFlood flood-opacity="0" result="BackgroundImageFix"/>
<feBlend mode="normal" in="SourceGraphic" in2="BackgroundImageFix" result="shape"/>
<feGaussianBlur stdDeviation="276.229" result="effect1_foregroundBlur_620_9945"/>
</filter>
<filter id="filter2_f_620_9945" x="-944.177" y="0.433411" width="1909.79" height="1909.79" filterUnits="userSpaceOnUse" color-interpolation-filters="sRGB">
<feFlood flood-opacity="0" result="BackgroundImageFix"/>
<feBlend mode="normal" in="SourceGraphic" in2="BackgroundImageFix" result="shape"/>
<feGaussianBlur stdDeviation="276.229" result="effect1_foregroundBlur_620_9945"/>
</filter>
<filter id="filter3_f_620_9945" x="429.519" y="-914.454" width="2209.83" height="2209.83" filterUnits="userSpaceOnUse" color-interpolation-filters="sRGB">
<feFlood flood-opacity="0" result="BackgroundImageFix"/>
<feBlend mode="normal" in="SourceGraphic" in2="BackgroundImageFix" result="shape"/>
<feGaussianBlur stdDeviation="276.229" result="effect1_foregroundBlur_620_9945"/>
</filter>
<filter id="filter4_f_620_9945" x="-418.038" y="28.7318" width="2028.85" height="2028.85" filterUnits="userSpaceOnUse" color-interpolation-filters="sRGB">
<feFlood flood-opacity="0" result="BackgroundImageFix"/>
<feBlend mode="normal" in="SourceGraphic" in2="BackgroundImageFix" result="shape"/>
<feGaussianBlur stdDeviation="276.229" result="effect1_foregroundBlur_620_9945"/>
</filter>
<filter id="filter5_f_620_9945" x="523.265" y="121.909" width="1267.19" height="983.164" filterUnits="userSpaceOnUse" color-interpolation-filters="sRGB">
<feFlood flood-opacity="0" result="BackgroundImageFix"/>
<feBlend mode="normal" in="SourceGraphic" in2="BackgroundImageFix" result="shape"/>
<feGaussianBlur stdDeviation="30.6522" result="effect1_foregroundBlur_620_9945"/>
</filter>
<filter id="filter6_f_620_9945" x="578.297" y="85.3012" width="1377.73" height="1163.78" filterUnits="userSpaceOnUse" color-interpolation-filters="sRGB">
<feFlood flood-opacity="0" result="BackgroundImageFix"/>
<feBlend mode="normal" in="SourceGraphic" in2="BackgroundImageFix" result="shape"/>
<feGaussianBlur stdDeviation="63.3478" result="effect1_foregroundBlur_620_9945"/>
</filter>
<filter id="filter7_f_620_9945" x="-270.632" y="-1057.16" width="2028.85" height="2028.85" filterUnits="userSpaceOnUse" color-interpolation-filters="sRGB">
<feFlood flood-opacity="0" result="BackgroundImageFix"/>
<feBlend mode="normal" in="SourceGraphic" in2="BackgroundImageFix" result="shape"/>
<feGaussianBlur stdDeviation="276.229" result="effect1_foregroundBlur_620_9945"/>
</filter>
<filter id="filter8_f_620_9945" x="338.051" y="-399.82" width="2196.56" height="1209.35" filterUnits="userSpaceOnUse" color-interpolation-filters="sRGB">
<feFlood flood-opacity="0" result="BackgroundImageFix"/>
<feBlend mode="normal" in="SourceGraphic" in2="BackgroundImageFix" result="shape"/>
<feGaussianBlur stdDeviation="73.8197" result="effect1_foregroundBlur_620_9945"/>
</filter>
<filter id="filter9_f_620_9945" x="152.28" y="-499.784" width="2120.36" height="1133.15" filterUnits="userSpaceOnUse" color-interpolation-filters="sRGB">
<feFlood flood-opacity="0" result="BackgroundImageFix"/>
<feBlend mode="normal" in="SourceGraphic" in2="BackgroundImageFix" result="shape"/>
<feGaussianBlur stdDeviation="54.7695" result="effect1_foregroundBlur_620_9945"/>
</filter>
<filter id="filter10_f_620_9945" x="358.027" y="-1147.81" width="2209.83" height="2209.83" filterUnits="userSpaceOnUse" color-interpolation-filters="sRGB">
<feFlood flood-opacity="0" result="BackgroundImageFix"/>
<feBlend mode="normal" in="SourceGraphic" in2="BackgroundImageFix" result="shape"/>
<feGaussianBlur stdDeviation="276.229" result="effect1_foregroundBlur_620_9945"/>
</filter>
<filter id="filter11_f_620_9945" x="758.188" y="-447.751" width="1790.72" height="1790.72" filterUnits="userSpaceOnUse" color-interpolation-filters="sRGB">
<feFlood flood-opacity="0" result="BackgroundImageFix"/>
<feBlend mode="normal" in="SourceGraphic" in2="BackgroundImageFix" result="shape"/>
<feGaussianBlur stdDeviation="276.229" result="effect1_foregroundBlur_620_9945"/>
</filter>
<filter id="filter12_f_620_9945" x="134.604" y="-365.583" width="1191" height="1030" filterUnits="userSpaceOnUse" color-interpolation-filters="sRGB">
<feFlood flood-opacity="0" result="BackgroundImageFix"/>
<feBlend mode="normal" in="SourceGraphic" in2="BackgroundImageFix" result="shape"/>
<feGaussianBlur stdDeviation="150" result="effect1_foregroundBlur_620_9945"/>
</filter>
<filter id="filter13_f_620_9945" x="-216.947" y="66.965" width="990.777" height="1069.1" filterUnits="userSpaceOnUse" color-interpolation-filters="sRGB">
<feFlood flood-opacity="0" result="BackgroundImageFix"/>
<feBlend mode="normal" in="SourceGraphic" in2="BackgroundImageFix" result="shape"/>
<feGaussianBlur stdDeviation="124.268" result="effect1_foregroundBlur_620_9945"/>
</filter>
<filter id="filter14_f_620_9945" x="-192.817" y="89.532" width="607.788" height="510.683" filterUnits="userSpaceOnUse" color-interpolation-filters="sRGB">
<feFlood flood-opacity="0" result="BackgroundImageFix"/>
<feBlend mode="normal" in="SourceGraphic" in2="BackgroundImageFix" result="shape"/>
<feGaussianBlur stdDeviation="4.97072" result="effect1_foregroundBlur_620_9945"/>
</filter>
<filter id="filter15_f_620_9945" x="-263.088" y="98.8998" width="736.167" height="675.377" filterUnits="userSpaceOnUse" color-interpolation-filters="sRGB">
<feFlood flood-opacity="0" result="BackgroundImageFix"/>
<feBlend mode="normal" in="SourceGraphic" in2="BackgroundImageFix" result="shape"/>
<feGaussianBlur stdDeviation="17.3975" result="effect1_foregroundBlur_620_9945"/>
</filter>
<filter id="filter16_f_620_9945" x="-378.047" y="111.953" width="944.801" height="935.683" filterUnits="userSpaceOnUse" color-interpolation-filters="sRGB">
<feFlood flood-opacity="0" result="BackgroundImageFix"/>
<feBlend mode="normal" in="SourceGraphic" in2="BackgroundImageFix" result="shape"/>
<feGaussianBlur stdDeviation="24.8536" result="effect1_foregroundBlur_620_9945"/>
</filter>
<filter id="filter17_f_620_9945" x="-429.617" y="67.4745" width="1169.88" height="1063.92" filterUnits="userSpaceOnUse" color-interpolation-filters="sRGB">
<feFlood flood-opacity="0" result="BackgroundImageFix"/>
<feBlend mode="normal" in="SourceGraphic" in2="BackgroundImageFix" result="shape"/>
<feGaussianBlur stdDeviation="67.1047" result="effect1_foregroundBlur_620_9945"/>
</filter>
<filter id="filter18_f_620_9945" x="-500.828" y="-144.958" width="1524.82" height="1578.88" filterUnits="userSpaceOnUse" color-interpolation-filters="sRGB">
<feFlood flood-opacity="0" result="BackgroundImageFix"/>
<feBlend mode="normal" in="SourceGraphic" in2="BackgroundImageFix" result="shape"/>
<feGaussianBlur stdDeviation="166.519" result="effect1_foregroundBlur_620_9945"/>
</filter>
<filter id="filter19_f_620_9945" x="-474.079" y="98.7484" width="1095.89" height="1084.01" filterUnits="userSpaceOnUse" color-interpolation-filters="sRGB">
<feFlood flood-opacity="0" result="BackgroundImageFix"/>
<feBlend mode="normal" in="SourceGraphic" in2="BackgroundImageFix" result="shape"/>
<feGaussianBlur stdDeviation="77.0461" result="effect1_foregroundBlur_620_9945"/>
</filter>
<filter id="filter20_f_620_9945" x="1080.17" y="-78.3606" width="881.637" height="732.565" filterUnits="userSpaceOnUse" color-interpolation-filters="sRGB">
<feFlood flood-opacity="0" result="BackgroundImageFix"/>
<feBlend mode="normal" in="SourceGraphic" in2="BackgroundImageFix" result="shape"/>
<feGaussianBlur stdDeviation="4.97072" result="effect1_foregroundBlur_620_9945"/>
</filter>
<filter id="filter21_f_620_9945" x="938.602" y="-241.626" width="1069.13" height="918.686" filterUnits="userSpaceOnUse" color-interpolation-filters="sRGB">
<feFlood flood-opacity="0" result="BackgroundImageFix"/>
<feBlend mode="normal" in="SourceGraphic" in2="BackgroundImageFix" result="shape"/>
<feGaussianBlur stdDeviation="17.3975" result="effect1_foregroundBlur_620_9945"/>
</filter>
<filter id="filter22_f_620_9945" x="760.877" y="-441.293" width="1339.73" height="1132.64" filterUnits="userSpaceOnUse" color-interpolation-filters="sRGB">
<feFlood flood-opacity="0" result="BackgroundImageFix"/>
<feBlend mode="normal" in="SourceGraphic" in2="BackgroundImageFix" result="shape"/>
<feGaussianBlur stdDeviation="24.8536" result="effect1_foregroundBlur_620_9945"/>
</filter>
<filter id="filter23_f_620_9945" x="782.411" y="-652.214" width="1486.7" height="1321.77" filterUnits="userSpaceOnUse" color-interpolation-filters="sRGB">
<feFlood flood-opacity="0" result="BackgroundImageFix"/>
<feBlend mode="normal" in="SourceGraphic" in2="BackgroundImageFix" result="shape"/>
<feGaussianBlur stdDeviation="67.1047" result="effect1_foregroundBlur_620_9945"/>
</filter>
<filter id="filter24_f_620_9945" x="626.974" y="-1014.04" width="1922.4" height="1748.27" filterUnits="userSpaceOnUse" color-interpolation-filters="sRGB">
<feFlood flood-opacity="0" result="BackgroundImageFix"/>
<feBlend mode="normal" in="SourceGraphic" in2="BackgroundImageFix" result="shape"/>
<feGaussianBlur stdDeviation="166.519" result="effect1_foregroundBlur_620_9945"/>
</filter>
<filter id="filter25_f_620_9945" x="673.672" y="-638.129" width="1427.87" height="1342.38" filterUnits="userSpaceOnUse" color-interpolation-filters="sRGB">
<feFlood flood-opacity="0" result="BackgroundImageFix"/>
<feBlend mode="normal" in="SourceGraphic" in2="BackgroundImageFix" result="shape"/>
<feGaussianBlur stdDeviation="77.0461" result="effect1_foregroundBlur_620_9945"/>
</filter>
<linearGradient id="paint0_linear_620_9945" x1="0" y1="0" x2="1232.25" y2="659.928" gradientUnits="userSpaceOnUse">
<stop stop-color="#3A9088"/>
<stop offset="1" stop-color="#009688"/>
</linearGradient>
<linearGradient id="paint1_linear_620_9945" x1="1172.76" y1="462.074" x2="1172.76" y2="1438.33" gradientUnits="userSpaceOnUse">
<stop stop-color="#009688"/>
<stop offset="1" stop-color="#2EC4B6"/>
</linearGradient>
<linearGradient id="paint2_linear_620_9945" x1="-305.945" y1="52.9587" x2="-305.945" y2="1029.22" gradientUnits="userSpaceOnUse">
<stop stop-color="#009688"/>
<stop offset="1" stop-color="#2EC4B6"/>
</linearGradient>
<linearGradient id="paint3_linear_620_9945" x1="596.508" y1="688.774" x2="596.508" y2="1505.13" gradientUnits="userSpaceOnUse">
<stop stop-color="#009688"/>
<stop offset="1" stop-color="#2EC4B6"/>
</linearGradient>
<linearGradient id="paint4_linear_620_9945" x1="743.914" y1="-397.12" x2="743.914" y2="419.233" gradientUnits="userSpaceOnUse">
<stop stop-color="#009688"/>
<stop offset="1" stop-color="#2EC4B6"/>
</linearGradient>
<linearGradient id="paint5_linear_620_9945" x1="1436.19" y1="555.542" x2="1436.01" y2="-252.046" gradientUnits="userSpaceOnUse">
<stop stop-color="#009688"/>
<stop offset="1" stop-color="#2EC4B6"/>
</linearGradient>
<linearGradient id="paint6_linear_620_9945" x1="1212.31" y1="417.478" x2="1212.14" y2="-390.11" gradientUnits="userSpaceOnUse">
<stop stop-color="#009688"/>
<stop offset="1" stop-color="#2EC4B6"/>
</linearGradient>
<linearGradient id="paint7_linear_620_9945" x1="1463.08" y1="-466.692" x2="1463.08" y2="509.564" gradientUnits="userSpaceOnUse">
<stop stop-color="#009688"/>
<stop offset="1" stop-color="#2EC4B6"/>
</linearGradient>
<linearGradient id="paint8_linear_620_9945" x1="380.575" y1="401.851" x2="-105.445" y2="327.522" gradientUnits="userSpaceOnUse">
<stop stop-color="#C4C4C4"/>
<stop offset="0.943414" stop-color="#C4C4C4" stop-opacity="0"/>
</linearGradient>
<linearGradient id="paint9_linear_620_9945" x1="193.002" y1="158.502" x2="64.7183" y2="716.433" gradientUnits="userSpaceOnUse">
<stop stop-color="#C4C4C4"/>
<stop offset="1" stop-color="#C4C4C4" stop-opacity="0"/>
</linearGradient>
<linearGradient id="paint10_linear_620_9945" x1="1682.86" y1="650.967" x2="1246.57" y2="-99.9504" gradientUnits="userSpaceOnUse">
<stop stop-color="#C4C4C4"/>
<stop offset="1" stop-color="#C4C4C4" stop-opacity="0"/>
</linearGradient>
<linearGradient id="paint11_linear_620_9945" x1="450.178" y1="838.501" x2="417.305" y2="985.683" gradientUnits="userSpaceOnUse">
<stop stop-color="#C4C4C4"/>
<stop offset="1" stop-color="#C4C4C4" stop-opacity="0"/>
</linearGradient>
<clipPath id="clip0_620_9945">
<rect width="1440" height="272" fill="white"/>
</clipPath>
<clipPath id="clip1_620_9945">
<rect width="1440" height="457" fill="white"/>
</clipPath>
</defs>
</svg>
