<svg width="108" height="20" viewBox="0 0 108 20" fill="none" xmlns="http://www.w3.org/2000/svg">
<path d="M10.5377 1.47984C10.1974 1.31759 9.80202 1.31759 9.46172 1.47984C9.16754 1.6201 9.00535 1.86364 8.92355 1.99724C8.83899 2.13535 8.75219 2.31129 8.66759 2.48278L6.87114 6.12219L2.85277 6.70953C2.66361 6.73714 2.46952 6.76547 2.31209 6.80332C2.15979 6.83995 1.8782 6.91916 1.6541 7.15569C1.39486 7.42933 1.27294 7.80534 1.32229 8.17904C1.36495 8.50207 1.54649 8.73144 1.64832 8.85046C1.75359 8.9735 1.89413 9.11033 2.0311 9.24368L4.93759 12.0746L4.25179 16.0732C4.21941 16.2617 4.1862 16.4551 4.17342 16.6166C4.16105 16.7728 4.1491 17.0652 4.30468 17.3516C4.48464 17.6829 4.80454 17.9153 5.17526 17.9841C5.49577 18.0435 5.77017 17.9417 5.91487 17.8817C6.06449 17.8196 6.23818 17.7282 6.40747 17.6391L9.99969 15.75L13.5919 17.6391C13.7612 17.7282 13.9349 17.8196 14.0845 17.8817C14.2292 17.9417 14.5036 18.0435 14.8241 17.9841C15.1948 17.9153 15.5147 17.6829 15.6947 17.3516C15.8503 17.0652 15.8383 16.7728 15.826 16.6166C15.8132 16.4551 15.78 16.2617 15.7476 16.0732L15.0618 12.0746L17.9683 9.24365C18.1053 9.11031 18.2458 8.97349 18.3511 8.85046C18.4529 8.73144 18.6344 8.50207 18.6771 8.17904C18.7264 7.80534 18.6045 7.42933 18.3453 7.15569C18.1212 6.91916 17.8396 6.83995 17.6873 6.80332C17.5299 6.76547 17.3358 6.73714 17.1466 6.70953L13.1282 6.12219L11.3318 2.48285C11.2472 2.31134 11.1604 2.13536 11.0758 1.99724C10.994 1.86364 10.8318 1.6201 10.5377 1.47984Z" fill="#FFBE4C"/>
<path d="M32.5377 1.47984C32.1974 1.31759 31.802 1.31759 31.4617 1.47984C31.1675 1.6201 31.0053 1.86364 30.9236 1.99724C30.839 2.13535 30.7522 2.31129 30.6676 2.48278L28.8711 6.12219L24.8528 6.70953C24.6636 6.73714 24.4695 6.76547 24.3121 6.80332C24.1598 6.83995 23.8782 6.91916 23.6541 7.15569C23.3949 7.42933 23.2729 7.80534 23.3223 8.17904C23.365 8.50207 23.5465 8.73144 23.6483 8.85046C23.7536 8.9735 23.8941 9.11033 24.0311 9.24368L26.9376 12.0746L26.2518 16.0732C26.2194 16.2617 26.1862 16.4551 26.1734 16.6166C26.161 16.7728 26.1491 17.0652 26.3047 17.3516C26.4846 17.6829 26.8045 17.9153 27.1753 17.9841C27.4958 18.0435 27.7702 17.9417 27.9149 17.8817C28.0645 17.8196 28.2382 17.7282 28.4075 17.6391L31.9997 15.75L35.5919 17.6391C35.7612 17.7282 35.9349 17.8196 36.0845 17.8817C36.2292 17.9417 36.5036 18.0435 36.8241 17.9841C37.1948 17.9153 37.5147 17.6829 37.6947 17.3516C37.8503 17.0652 37.8383 16.7728 37.826 16.6166C37.8132 16.4551 37.78 16.2617 37.7476 16.0732L37.0618 12.0746L39.9683 9.24365C40.1053 9.11031 40.2458 8.97349 40.3511 8.85046C40.4529 8.73144 40.6344 8.50207 40.6771 8.17904C40.7264 7.80534 40.6045 7.42933 40.3453 7.15569C40.1212 6.91916 39.8396 6.83995 39.6873 6.80332C39.5299 6.76547 39.3358 6.73714 39.1466 6.70953L35.1282 6.12219L33.3318 2.48285C33.2472 2.31134 33.1604 2.13536 33.0758 1.99724C32.994 1.86364 32.8318 1.6201 32.5377 1.47984Z" fill="#FFBE4C"/>
<path d="M54.5377 1.47984C54.1974 1.31759 53.802 1.31759 53.4617 1.47984C53.1675 1.6201 53.0053 1.86364 52.9236 1.99724C52.839 2.13535 52.7522 2.31129 52.6676 2.48278L50.8711 6.12219L46.8528 6.70953C46.6636 6.73714 46.4695 6.76547 46.3121 6.80332C46.1598 6.83995 45.8782 6.91916 45.6541 7.15569C45.3949 7.42933 45.2729 7.80534 45.3223 8.17904C45.365 8.50207 45.5465 8.73144 45.6483 8.85046C45.7536 8.9735 45.8941 9.11033 46.0311 9.24368L48.9376 12.0746L48.2518 16.0732C48.2194 16.2617 48.1862 16.4551 48.1734 16.6166C48.161 16.7728 48.1491 17.0652 48.3047 17.3516C48.4846 17.6829 48.8045 17.9153 49.1753 17.9841C49.4958 18.0435 49.7702 17.9417 49.9149 17.8817C50.0645 17.8196 50.2382 17.7282 50.4075 17.6391L53.9997 15.75L57.5919 17.6391C57.7612 17.7282 57.9349 17.8196 58.0845 17.8817C58.2292 17.9417 58.5036 18.0435 58.8241 17.9841C59.1948 17.9153 59.5147 17.6829 59.6947 17.3516C59.8503 17.0652 59.8383 16.7728 59.826 16.6166C59.8132 16.4551 59.78 16.2617 59.7476 16.0732L59.0618 12.0746L61.9683 9.24365C62.1053 9.11031 62.2458 8.97349 62.3511 8.85046C62.4529 8.73144 62.6344 8.50207 62.6771 8.17904C62.7264 7.80534 62.6045 7.42933 62.3453 7.15569C62.1212 6.91916 61.8396 6.83995 61.6873 6.80332C61.5299 6.76547 61.3358 6.73714 61.1466 6.70953L57.1282 6.12219L55.3318 2.48285C55.2472 2.31134 55.1604 2.13536 55.0758 1.99724C54.994 1.86364 54.8318 1.6201 54.5377 1.47984Z" fill="#FFBE4C"/>
<path d="M76.5377 1.47984C76.1974 1.31759 75.802 1.31759 75.4617 1.47984C75.1675 1.6201 75.0053 1.86364 74.9236 1.99724C74.839 2.13535 74.7522 2.31129 74.6676 2.48278L72.8711 6.12219L68.8528 6.70953C68.6636 6.73714 68.4695 6.76547 68.3121 6.80332C68.1598 6.83995 67.8782 6.91916 67.6541 7.15569C67.3949 7.42933 67.2729 7.80534 67.3223 8.17904C67.365 8.50207 67.5465 8.73144 67.6483 8.85046C67.7536 8.9735 67.8941 9.11033 68.0311 9.24368L70.9376 12.0746L70.2518 16.0732C70.2194 16.2617 70.1862 16.4551 70.1734 16.6166C70.161 16.7728 70.1491 17.0652 70.3047 17.3516C70.4846 17.6829 70.8045 17.9153 71.1753 17.9841C71.4958 18.0435 71.7702 17.9417 71.9149 17.8817C72.0645 17.8196 72.2382 17.7282 72.4075 17.6391L75.9997 15.75L79.5919 17.6391C79.7612 17.7282 79.9349 17.8196 80.0845 17.8817C80.2292 17.9417 80.5036 18.0435 80.8241 17.9841C81.1948 17.9153 81.5147 17.6829 81.6947 17.3516C81.8503 17.0652 81.8383 16.7728 81.826 16.6166C81.8132 16.4551 81.78 16.2617 81.7476 16.0732L81.0618 12.0746L83.9683 9.24365C84.1053 9.11031 84.2458 8.97349 84.3511 8.85046C84.4529 8.73144 84.6344 8.50207 84.6771 8.17904C84.7264 7.80534 84.6045 7.42933 84.3453 7.15569C84.1212 6.91916 83.8396 6.83995 83.6873 6.80332C83.5299 6.76547 83.3358 6.73714 83.1466 6.70953L79.1282 6.12219L77.3318 2.48285C77.2472 2.31134 77.1604 2.13536 77.0758 1.99724C76.994 1.86364 76.8318 1.6201 76.5377 1.47984Z" fill="#FFBE4C"/>
<path d="M98.5377 1.47984C98.1974 1.31759 97.802 1.31759 97.4617 1.47984C97.1675 1.6201 97.0053 1.86364 96.9236 1.99724C96.839 2.13535 96.7522 2.31129 96.6676 2.48278L94.8711 6.12219L90.8528 6.70953C90.6636 6.73714 90.4695 6.76547 90.3121 6.80332C90.1598 6.83995 89.8782 6.91916 89.6541 7.15569C89.3949 7.42933 89.2729 7.80534 89.3223 8.17904C89.365 8.50207 89.5465 8.73144 89.6483 8.85046C89.7536 8.9735 89.8941 9.11033 90.0311 9.24368L92.9376 12.0746L92.2518 16.0732C92.2194 16.2617 92.1862 16.4551 92.1734 16.6166C92.161 16.7728 92.1491 17.0652 92.3047 17.3516C92.4846 17.6829 92.8045 17.9153 93.1753 17.9841C93.4958 18.0435 93.7702 17.9417 93.9149 17.8817C94.0645 17.8196 94.2382 17.7282 94.4075 17.6391L97.9997 15.75L101.592 17.6391C101.761 17.7282 101.935 17.8196 102.085 17.8817C102.229 17.9417 102.504 18.0435 102.824 17.9841C103.195 17.9153 103.515 17.6829 103.695 17.3516C103.85 17.0652 103.838 16.7728 103.826 16.6166C103.813 16.4551 103.78 16.2617 103.748 16.0732L103.062 12.0746L105.968 9.24365C106.105 9.11031 106.246 8.97349 106.351 8.85046C106.453 8.73144 106.634 8.50207 106.677 8.17904C106.726 7.80534 106.605 7.42933 106.345 7.15569C106.121 6.91916 105.84 6.83995 105.687 6.80332C105.53 6.76547 105.336 6.73714 105.147 6.70953L101.128 6.12219L99.3318 2.48285C99.2472 2.31134 99.1604 2.13536 99.0758 1.99724C98.994 1.86364 98.8318 1.6201 98.5377 1.47984Z" fill="#FFBE4C"/>
</svg>
