<svg width="36" height="36" viewBox="0 0 36 36" fill="none" xmlns="http://www.w3.org/2000/svg">
<g clip-path="url(#clip0_620_9830)">
<path d="M15.3966 15.2448C14.0182 14.6121 12.4905 14.2504 10.8732 14.2504C4.86701 14.2504 -0.00195312 19.1193 -0.00195312 25.1251C-0.00195312 31.1313 4.86701 36.0002 10.8732 36.0002C12.4905 36.0002 14.0178 35.6385 15.3966 35.0057C12.8388 32.4875 11.248 28.9897 11.248 25.1251C11.248 21.261 12.8388 17.7631 15.3966 15.2448Z" fill="#009688"/>
<path d="M35.0073 20.6005C32.4891 23.1596 28.9913 24.7504 25.1267 24.7504C21.2625 24.7504 17.7647 23.1597 15.2464 20.6005C14.6137 21.9802 14.252 23.5079 14.252 25.1252C14.252 31.1314 19.1209 36.0004 25.1267 36.0004C31.1328 36.0004 36.0018 31.1314 36.0018 25.1252C36.0018 23.508 35.64 21.9806 35.0073 20.6005Z" fill="#009688"/>
<path d="M25.1244 0C23.5071 0 21.9798 0.361758 20.5996 0.994482C23.1587 3.51264 24.7495 7.01051 24.7495 10.8751C24.7495 14.7393 23.1588 18.2371 20.5996 20.7554C21.9793 21.3881 23.507 21.7499 25.1244 21.7499C31.1306 21.7499 35.9995 16.8809 35.9995 10.8751C35.9995 4.86897 31.1306 0 25.1244 0Z" fill="#009688"/>
<path d="M10.8732 0C4.86701 0 -0.00195312 4.86897 -0.00195312 10.8751C-0.00195312 12.4924 0.359805 14.0198 0.992529 15.3985C3.51077 12.8407 7.00855 11.25 10.8732 11.25C14.7373 11.25 18.2352 12.8407 20.7534 15.3985C21.3861 14.0201 21.7479 12.4924 21.7479 10.8751C21.7479 4.86897 16.8789 0 10.8732 0Z" fill="white"/>
</g>
<defs>
<clipPath id="clip0_620_9830">
<rect width="36" height="36" fill="white"/>
</clipPath>
</defs>
</svg>
