<svg width="36" height="36" viewBox="0 0 36 36" fill="none" xmlns="http://www.w3.org/2000/svg">
<path d="M17.999 32.3998C19.7778 30.7546 20.9006 28.4085 20.9006 25.7999C20.9006 23.1914 19.7778 20.8449 17.999 19.1997H25.7991C29.4434 19.1997 32.399 22.1553 32.399 25.7999C32.399 29.4442 29.4434 32.3998 25.7991 32.3998H17.999Z" fill="#009688"/>
<path d="M3.59961 32.3998C5.37837 30.7546 6.50121 28.4085 6.50121 25.7999C6.50121 23.1914 5.37837 20.8449 3.59961 19.1997H11.3997C15.0429 19.1997 17.9985 22.1553 17.9985 25.7999C17.9985 29.4442 15.0429 32.3998 11.3997 32.3998H3.59961Z" fill="#009688"/>
<path d="M17.999 16.8001C19.7778 15.1545 20.9006 12.8088 20.9006 10.2002C20.9006 7.59166 19.7778 5.24518 17.999 3.59998H25.7991C29.4434 3.59998 32.399 6.55522 32.399 10.1999C32.399 13.8445 29.4434 16.7997 25.7991 16.7997L17.999 16.8001Z" fill="#009688"/>
<path d="M3.59961 16.8001C5.37837 15.1545 6.50121 12.8088 6.50121 10.2002C6.50121 7.59166 5.37837 5.24518 3.59961 3.59998H11.3997C15.0429 3.59998 17.9985 6.55522 17.9985 10.1999C17.9985 13.8445 15.0429 16.7997 11.3997 16.7997L3.59961 16.8001Z" fill="white"/>
</svg>
