<svg width="264" height="31" viewBox="0 0 264 31" fill="none" xmlns="http://www.w3.org/2000/svg">
<path d="M16.4176 23.2049C14.1903 22.3524 11.8994 22.2213 9.79941 22.8115C8.33577 23.2049 6.93577 23.9918 5.66304 24.9754L4.77212 25.7623L4.51758 26.0246L5.0903 26.5491C5.15394 26.5491 5.15395 26.6147 5.21758 26.6803C5.34485 26.8115 5.47214 26.877 5.66304 27.0082L6.04485 27.2705L6.42667 26.9426C6.49031 26.877 6.61758 26.7459 6.74485 26.6803C7.89031 25.6967 9.16303 25.041 10.4994 24.7131C12.2176 24.2541 14.063 24.3196 15.9085 25.041C17.4358 25.6311 20.5539 26.3524 24.3085 24.7131L24.4358 24.6475L24.6267 24.4508C24.6267 24.3852 24.6903 24.3852 24.754 24.3196C25.0721 23.9262 25.3903 23.5328 25.6449 23.0737L26.9176 21.041L24.8812 22.2213C21.8903 23.9262 19.1539 24.2541 16.4176 23.2049Z" fill="black"/>
<path d="M7.70018 16.1229C9.41836 15.6639 11.2638 15.7295 13.1093 16.4508C15.1456 17.2377 20.3638 18.3524 26.2184 12.9098L27.1729 11.9262L27.2366 11.8606L27.4911 11.5983L27.3638 11.2705C27.3002 11.0082 27.1729 10.6803 27.0456 10.3524L26.7274 9.43439L26.0911 10.0901C26.0275 10.2213 25.9002 10.2868 25.7729 10.418C22.9729 13.3688 18.6456 16.3852 13.682 14.5492C11.4547 13.6967 9.16382 13.5655 7.06382 14.1557C5.02745 14.7459 3.24563 15.8606 1.59109 17.4344V17.3688L0.636541 18.418C0.636541 18.4836 0.572916 18.4836 0.50928 18.5492L0.318359 18.7459L0.382 19.0082C0.445636 19.336 0.572905 19.6639 0.636541 19.9918L1.01836 21.041L1.65473 20.1885C1.71836 20.0574 1.84563 19.9918 1.90927 19.8606C3.24563 18.6147 5.09109 16.8442 7.70018 16.1229Z" fill="black"/>
<path d="M1.52729 14.9426C2.99092 13.3688 4.64546 12.3852 6.42728 11.8606C8.14546 11.4016 9.99091 11.4672 11.8364 12.1885C17.5636 14.3524 22.5273 10.8114 24.6909 8.90981L25.5182 8.05736L25.8364 7.79505L25.5818 7.40162C25.3909 7.2049 25.2637 6.9426 25.0727 6.6803L24.6909 6.1557L24.2455 6.61473C24.1818 6.6803 24.0546 6.81144 23.9909 6.87702C21.3182 9.49997 17.1818 12.1885 12.4727 10.3524C10.2455 9.49998 7.95455 9.36883 5.85455 9.95899C4.51819 10.3524 3.24546 11.0082 1.97273 11.8606L0.636364 12.9754C0.509091 13.1065 0.445455 13.1721 0.318182 13.3033L0.190921 13.4344V13.6311C0.127284 14.0901 0.127277 14.5492 0.0636402 14.9426L0 16.582L1.08183 15.4016C1.2091 15.2705 1.33638 15.0738 1.52729 14.9426Z" fill="black"/>
<path d="M18.2643 27.664L18.137 28.0574L18.2643 27.664C18.0734 27.5984 17.9461 27.5328 17.7552 27.4672C15.528 26.6148 13.237 26.4837 11.137 27.0738C10.6916 27.205 10.2461 27.3361 9.80069 27.5328L8.2734 28.2541L7.8916 28.4509L9.16433 28.9099C9.54615 29.041 9.92796 29.1722 10.3098 29.3033L10.5007 29.3689L10.6916 29.3033C10.8825 29.2378 11.0734 29.1066 11.2643 29.1066C11.3916 29.1066 11.5189 29.041 11.6461 28.9755C13.1734 28.582 14.828 28.582 16.6098 29.1722C16.8007 29.2377 16.928 29.3033 17.1189 29.3689L17.4371 29.5L17.628 29.4345C18.0734 29.3033 18.5825 29.1722 18.9643 28.9755L20.7461 28.3197L18.9007 27.8607C18.7098 27.7951 18.4552 27.7296 18.2643 27.664Z" fill="black"/>
<path d="M27.9996 14.0901L27.0451 15.0738C26.9178 15.2049 26.7905 15.3361 26.6632 15.4672C24.0542 18.0246 19.8542 20.7787 15.1451 18.9426C12.9178 18.0901 10.6269 17.959 8.52689 18.5492C6.55416 19.1393 4.77233 20.1885 3.18142 21.7623L2.35415 22.6803L2.09961 23.0082L2.35415 23.4016C2.54506 23.6639 2.67234 23.8607 2.79961 24.123L3.18142 24.7131L3.62688 24.123C3.69051 24.0574 3.81778 23.9262 3.88142 23.8606C5.40869 22.1557 7.06324 21.1065 8.97233 20.5819C10.6905 20.1229 12.536 20.1885 14.3814 20.9098C15.9723 21.5 17.6269 21.6967 19.2814 21.5C22.2087 21.1721 25.136 19.4672 27.2996 17.5656C27.4269 17.4344 27.5541 17.3689 27.6814 17.2377L27.8723 17.041V16.8443C27.8723 16.4508 27.936 15.9918 27.936 15.5984L27.9996 14.0901Z" fill="black"/>
<path d="M3.81839 8.05735L3.62749 7.66391L3.81839 8.05735C4.20021 7.86063 4.64568 7.72948 5.02749 7.59833C6.74568 7.13931 8.59113 7.20489 10.4366 7.9262C11.6457 8.38522 12.8548 8.58194 14.1911 8.58194C16.8639 8.58194 19.5366 7.59833 22.0184 5.69669L22.9729 4.9098L23.2911 4.64751L22.7184 4.18848C22.5275 3.99176 22.2729 3.79505 22.0184 3.6639L21.6366 3.40161L21.3184 3.6639C21.1911 3.72948 21.1275 3.86062 21.0002 3.92619C17.6275 6.54915 14.2548 7.27046 11.0729 6.02456C8.78204 5.1721 6.49112 4.97538 4.20021 5.69669C4.0093 5.76227 3.81839 5.82783 3.56385 5.89341L3.43658 5.95899L3.24566 6.1557C3.24566 6.22127 3.18204 6.22128 3.1184 6.28685C2.86386 6.6803 2.54566 7.00817 2.29112 7.40162L1.08203 9.30325L3.05476 8.25407C3.37294 8.25407 3.62748 8.12293 3.81839 8.05735Z" fill="black"/>
<path d="M9.03637 3.59835L9.22727 3.66393C10.0545 3.9918 11.3273 4.31966 12.9182 4.31966C14.5727 4.31966 16.1637 3.92622 17.7546 3.27048L19.7273 2.28687L18.3909 1.82787C18.0091 1.69672 17.6273 1.56557 17.1818 1.5H16.9909L16.8 1.56556C16.6091 1.63113 16.4182 1.7623 16.2273 1.82787C14.3182 2.54918 12.4091 2.68033 10.5636 2.15574C10.3727 2.09016 10.1818 2.02458 9.99092 1.959L9.80002 1.89343L9.60909 1.959C9.22728 2.09015 8.84547 2.22131 8.46365 2.41803L7 3.07377L8.52729 3.53277C8.65456 3.4672 8.84546 3.53278 9.03637 3.59835Z" fill="black"/>
<path d="M39.992 25V7.12H42.344V25H39.992ZM46.0561 25V12.064H48.2401V14.584L47.8801 14.368C48.2001 13.552 48.7121 12.92 49.4161 12.472C50.1361 12.008 50.9761 11.776 51.9361 11.776C52.8641 11.776 53.6881 11.984 54.4081 12.4C55.1441 12.816 55.7201 13.392 56.1361 14.128C56.5681 14.864 56.7841 15.696 56.7841 16.624V25H54.5281V17.344C54.5281 16.624 54.4001 16.016 54.1441 15.52C53.8881 15.024 53.5201 14.64 53.0401 14.368C52.5761 14.08 52.0401 13.936 51.4321 13.936C50.8241 13.936 50.2801 14.08 49.8001 14.368C49.3361 14.64 48.9681 15.032 48.6961 15.544C48.4241 16.04 48.2881 16.64 48.2881 17.344V25H46.0561ZM65.858 25.288C64.642 25.288 63.546 24.992 62.57 24.4C61.61 23.808 60.85 23 60.29 21.976C59.73 20.952 59.45 19.808 59.45 18.544C59.45 17.248 59.73 16.096 60.29 15.088C60.85 14.064 61.61 13.256 62.57 12.664C63.546 12.072 64.642 11.776 65.858 11.776C66.93 11.776 67.882 12.008 68.714 12.472C69.546 12.92 70.202 13.528 70.682 14.296L70.322 14.848V6.832H72.578V25H70.394V22.24L70.682 22.624C70.234 23.472 69.578 24.128 68.714 24.592C67.866 25.056 66.914 25.288 65.858 25.288ZM66.05 23.128C66.866 23.128 67.594 22.928 68.234 22.528C68.874 22.128 69.378 21.584 69.746 20.896C70.13 20.192 70.322 19.408 70.322 18.544C70.322 17.664 70.13 16.88 69.746 16.192C69.378 15.488 68.874 14.936 68.234 14.536C67.594 14.136 66.866 13.936 66.05 13.936C65.25 13.936 64.522 14.144 63.866 14.56C63.226 14.96 62.722 15.504 62.354 16.192C61.986 16.864 61.802 17.648 61.802 18.544C61.802 19.408 61.986 20.192 62.354 20.896C62.722 21.584 63.226 22.128 63.866 22.528C64.506 22.928 65.234 23.128 66.05 23.128ZM80.6167 25.288C79.6887 25.288 78.8487 25.072 78.0967 24.64C77.3607 24.208 76.7847 23.608 76.3687 22.84C75.9687 22.056 75.7687 21.16 75.7687 20.152V12.064H78.0007V19.912C78.0007 20.552 78.1287 21.112 78.3847 21.592C78.6567 22.072 79.0247 22.448 79.4887 22.72C79.9687 22.992 80.5127 23.128 81.1207 23.128C81.7287 23.128 82.2647 22.992 82.7287 22.72C83.2087 22.448 83.5767 22.056 83.8327 21.544C84.1047 21.032 84.2407 20.424 84.2407 19.72V12.064H86.4967V25H84.3127V22.48L84.6727 22.696C84.3687 23.512 83.8487 24.152 83.1127 24.616C82.3927 25.064 81.5607 25.288 80.6167 25.288ZM89.9546 25V12.064H92.1386V14.44L91.8986 14.104C92.2026 13.368 92.6666 12.824 93.2906 12.472C93.9146 12.104 94.6746 11.92 95.5706 11.92H96.3626V14.032H95.2346C94.3226 14.032 93.5866 14.32 93.0266 14.896C92.4666 15.456 92.1866 16.256 92.1866 17.296V25H89.9546ZM102.137 25.288C101.289 25.288 100.537 25.136 99.8812 24.832C99.2412 24.512 98.7372 24.08 98.3692 23.536C98.0012 22.976 97.8172 22.336 97.8172 21.616C97.8172 20.928 97.9612 20.312 98.2492 19.768C98.5532 19.208 99.0172 18.736 99.6412 18.352C100.281 17.968 101.081 17.696 102.041 17.536L106.841 16.744V18.616L102.545 19.336C101.713 19.48 101.105 19.744 100.721 20.128C100.353 20.512 100.169 20.984 100.169 21.544C100.169 22.072 100.377 22.512 100.793 22.864C101.225 23.216 101.761 23.392 102.401 23.392C103.217 23.392 103.921 23.224 104.513 22.888C105.121 22.536 105.593 22.064 105.929 21.472C106.281 20.88 106.457 20.224 106.457 19.504V16.216C106.457 15.512 106.193 14.944 105.665 14.512C105.153 14.064 104.473 13.84 103.625 13.84C102.889 13.84 102.233 14.032 101.657 14.416C101.097 14.784 100.681 15.28 100.409 15.904L98.4652 14.896C98.7052 14.304 99.0892 13.776 99.6172 13.312C100.145 12.832 100.761 12.456 101.465 12.184C102.169 11.912 102.905 11.776 103.673 11.776C104.665 11.776 105.537 11.968 106.289 12.352C107.041 12.72 107.625 13.24 108.041 13.912C108.473 14.568 108.689 15.336 108.689 16.216V25H106.505V22.552L106.913 22.696C106.641 23.208 106.273 23.656 105.809 24.04C105.345 24.424 104.801 24.728 104.177 24.952C103.553 25.176 102.873 25.288 102.137 25.288Z" fill="#0D0D12"/>
</svg>
