<svg width="26" height="30" viewBox="0 0 26 30" fill="none" xmlns="http://www.w3.org/2000/svg">
<path d="M11.959 13.9798L0.109375 26.8406C0.110488 26.8428 0.110488 26.8463 0.111601 26.8485C0.475537 28.245 1.72205 29.2727 3.20227 29.2727C3.79437 29.2727 4.34973 29.1088 4.82607 28.822L4.86391 28.7993L18.2016 20.9292L11.959 13.9798Z" fill="#EA4335"/>
<path d="M23.9464 11.7898L23.9353 11.7819L18.1769 8.36864L11.6895 14.2721L18.2002 20.9278L23.9275 17.5487C24.9314 16.9933 25.6136 15.911 25.6136 14.6636C25.6136 13.423 24.9414 12.3464 23.9464 11.7898Z" fill="#FBBC04"/>
<path d="M0.109069 2.43126C0.0378404 2.69985 0 2.98211 0 3.27347V25.9995C0 26.2909 0.0378404 26.5731 0.110182 26.8406L12.366 14.3087L0.109069 2.43126Z" fill="#4285F4"/>
<path d="M12.0459 14.6363L18.1783 8.36634L4.85626 0.46777C4.37212 0.17072 3.80674 2.20749e-06 3.20241 2.20749e-06C1.72218 2.20749e-06 0.473447 1.03 0.109511 2.42762C0.109511 2.42876 0.108398 2.42989 0.108398 2.43103L12.0459 14.6363Z" fill="#34A853"/>
</svg>
