<svg width="20" height="20" viewBox="0 0 20 20" fill="none" xmlns="http://www.w3.org/2000/svg">
<path d="M10.5377 1.47984C10.1974 1.31759 9.80202 1.31759 9.46172 1.47984C9.16754 1.6201 9.00535 1.86364 8.92355 1.99724C8.83899 2.13535 8.75219 2.31129 8.66759 2.48278L6.87114 6.12219L2.85277 6.70953C2.66361 6.73714 2.46952 6.76547 2.31209 6.80332C2.15979 6.83995 1.8782 6.91916 1.6541 7.15569C1.39486 7.42933 1.27294 7.80534 1.32229 8.17904C1.36495 8.50207 1.54649 8.73144 1.64832 8.85046C1.75359 8.9735 1.89413 9.11033 2.0311 9.24368L4.93759 12.0746L4.25179 16.0732C4.21941 16.2617 4.1862 16.4551 4.17342 16.6166C4.16105 16.7728 4.1491 17.0652 4.30468 17.3516C4.48464 17.6829 4.80454 17.9153 5.17526 17.9841C5.49577 18.0435 5.77017 17.9417 5.91487 17.8817C6.06449 17.8196 6.23818 17.7282 6.40747 17.6391L9.99969 15.75L13.5919 17.6391C13.7612 17.7282 13.9349 17.8196 14.0845 17.8817C14.2292 17.9417 14.5036 18.0435 14.8241 17.9841C15.1948 17.9153 15.5147 17.6829 15.6947 17.3516C15.8503 17.0652 15.8383 16.7728 15.826 16.6166C15.8132 16.4551 15.78 16.2617 15.7476 16.0732L15.0618 12.0746L17.9683 9.24365C18.1053 9.11031 18.2458 8.97349 18.3511 8.85046C18.4529 8.73144 18.6344 8.50207 18.6771 8.17904C18.7264 7.80534 18.6045 7.42933 18.3453 7.15569C18.1212 6.91916 17.8396 6.83995 17.6873 6.80332C17.5299 6.76547 17.3358 6.73714 17.1466 6.70953L13.1282 6.12219L11.3318 2.48285C11.2472 2.31134 11.1604 2.13536 11.0758 1.99724C10.994 1.86364 10.8318 1.6201 10.5377 1.47984Z" fill="#FFBE4C"/>
</svg>
